<svg xmlns="http://www.w3.org/2000/svg" version="1.1" xmlns:xlink="http://www.w3.org/1999/xlink" xmlns:svgjs="http://svgjs.dev/svgjs" width="1000" height="1000" viewBox="0 0 1000 1000"><rect width="1000" height="1000" fill="#046acf"></rect><g transform="matrix(0.7,0,0,0.7,149.57576043896245,461.41829286117184)"><svg viewBox="0 0 396 44" data-background-color="#046acf" preserveAspectRatio="xMidYMid meet" height="111" width="1000" xmlns="http://www.w3.org/2000/svg" xmlns:xlink="http://www.w3.org/1999/xlink"><g id="tight-bounds" transform="matrix(1,0,0,1,0.23999846653464374,-0.1519279365807904)"><svg viewBox="0 0 395.52 44.30385587316159" height="44.30385587316159" width="395.52"><g><svg viewBox="0 0 531.9903144334709 59.59046879191548" height="44.30385587316159" width="395.52"><g><rect width="3.888516623023684" height="43.33460284795589" x="405.69936288749653" y="8.127932971979792" fill="#ffffff" opacity="1" stroke-width="0" stroke="transparent" fill-opacity="1" class="rect-o-0" data-fill-palette-color="primary" rx="1%" id="o-0" data-palette-color="#ffffff"></rect></g><g transform="matrix(1,0,0,1,0,8.235730491502068)"><svg viewBox="0 0 395.52 43.11900780891134" height="43.11900780891134" width="395.52"><g id="textblocktransform"><svg viewBox="0 0 395.52 43.11900780891134" height="43.11900780891134" width="395.52" id="textblock"><g><svg viewBox="0 0 395.52 43.11900780891134" height="43.11900780891134" width="395.52"><g transform="matrix(1,0,0,1,0,0)"><svg width="395.52" viewBox="2.1500000953674316 -35 324.9900207519531 35.599998474121094" height="43.11900780891134" data-palette-color="#ffffff"><g class="undefined-text-0" data-fill-palette-color="primary" id="text-0"><path d="M18.15-35Q24.75-35 29-32.33 33.25-29.65 33.35-24.4L33.35-24.4 33.35-23.8 23-23.8 23-24Q23-25.5 21.9-26.5 20.8-27.5 18.55-27.5L18.55-27.5Q16.35-27.5 15.18-26.85 14-26.2 14-25.25L14-25.25Q14-23.9 15.6-23.25 17.2-22.6 20.75-21.9L20.75-21.9Q24.9-21.05 27.58-20.13 30.25-19.2 32.25-17.1 34.25-15 34.3-11.4L34.3-11.4Q34.3-5.3 30.18-2.35 26.05 0.6 19.15 0.6L19.15 0.6Q11.1 0.6 6.63-2.1 2.15-4.8 2.15-11.65L2.15-11.65 12.6-11.65Q12.6-9.05 13.95-8.18 15.3-7.3 18.15-7.3L18.15-7.3Q20.25-7.3 21.63-7.75 23-8.2 23-9.6L23-9.6Q23-10.85 21.48-11.48 19.95-12.1 16.5-12.8L16.5-12.8Q12.3-13.7 9.55-14.68 6.8-15.65 4.75-17.9 2.7-20.15 2.7-24L2.7-24Q2.7-29.65 7.08-32.33 11.45-35 18.15-35L18.15-35ZM56.9-35Q65.8-35 70.65-30.45 75.5-25.9 75.5-17.2L75.5-17.2Q75.5-8.5 70.65-3.95 65.8 0.6 56.9 0.6L56.9 0.6Q48 0.6 43.17-3.93 38.35-8.45 38.35-17.2L38.35-17.2Q38.35-25.95 43.17-30.48 48-35 56.9-35L56.9-35ZM56.9-26.75Q53.35-26.75 51.5-24.6 49.65-22.45 49.65-18.8L49.65-18.8 49.65-15.6Q49.65-11.95 51.5-9.8 53.35-7.65 56.9-7.65L56.9-7.65Q60.45-7.65 62.32-9.8 64.2-11.95 64.2-15.6L64.2-15.6 64.2-18.8Q64.2-22.45 62.32-24.6 60.45-26.75 56.9-26.75L56.9-26.75ZM81.45 0L81.45-34.4 109.25-34.4 109.25-26.15 92.5-26.15 92.5-20.25 106.9-20.25 106.9-12.35 92.5-12.35 92.5 0 81.45 0ZM145.84-25.6L134.59-25.6 134.59 0 123.54 0 123.54-25.6 112.24-25.6 112.24-34.4 145.84-34.4 145.84-25.6ZM188.89 0L176.74 0 172.29-20.95 172.09-20.95 167.64 0 155.49 0 147.44-34.4 158.94-34.4 162.89-14.9 163.09-14.9 166.99-34.4 177.89-34.4 182.04-14.9 182.24-14.9 185.94-34.4 196.94-34.4 188.89 0ZM212.44 0L201.39 0 201.39-34.4 212.44-34.4 212.44 0ZM250.78-30.85L234.83-8.25 251.19-8.25 251.19 0 217.83 0 217.83-3.55 233.78-26.15 219.03-26.15 219.03-34.4 250.78-34.4 250.78-30.85Z" fill="#ffffff" data-fill-palette-color="primary"></path><path d="M289.14-13.85Q289.14-6.8 284.69-3.1 280.24 0.6 272.04 0.6L272.04 0.6Q263.84 0.6 259.37-3.1 254.89-6.8 254.89-13.85L254.89-13.85 254.89-34.4 265.94-34.4 265.94-14Q265.94-11.1 267.49-9.38 269.04-7.65 271.99-7.65L271.99-7.65Q274.94-7.65 276.52-9.4 278.09-11.15 278.09-14L278.09-14 278.09-34.4 289.14-34.4 289.14-13.85ZM310.99-35Q317.59-35 321.84-32.33 326.09-29.65 326.19-24.4L326.19-24.4 326.19-23.8 315.84-23.8 315.84-24Q315.84-25.5 314.74-26.5 313.64-27.5 311.39-27.5L311.39-27.5Q309.19-27.5 308.01-26.85 306.84-26.2 306.84-25.25L306.84-25.25Q306.84-23.9 308.44-23.25 310.04-22.6 313.59-21.9L313.59-21.9Q317.74-21.05 320.41-20.13 323.09-19.2 325.09-17.1 327.09-15 327.14-11.4L327.14-11.4Q327.14-5.3 323.01-2.35 318.89 0.6 311.99 0.6L311.99 0.6Q303.94 0.6 299.46-2.1 294.99-4.8 294.99-11.65L294.99-11.65 305.44-11.65Q305.44-9.05 306.79-8.18 308.14-7.3 310.99-7.3L310.99-7.3Q313.09-7.3 314.46-7.75 315.84-8.2 315.84-9.6L315.84-9.6Q315.84-10.85 314.31-11.48 312.79-12.1 309.34-12.8L309.34-12.8Q305.14-13.7 302.39-14.68 299.64-15.65 297.59-17.9 295.54-20.15 295.54-24L295.54-24Q295.54-29.65 299.91-32.33 304.29-35 310.99-35L310.99-35Z" fill="#ff4136" data-fill-palette-color="secondary"></path></g></svg></g></svg></g></svg></g></svg></g><g transform="matrix(1,0,0,1,419.7672423980168,0)"><svg viewBox="0 0 112.22307203545414 59.59046879191548" height="59.59046879191548" width="112.22307203545414"><g><svg xmlns="http://www.w3.org/2000/svg" xmlns:xlink="http://www.w3.org/1999/xlink" version="1.1" x="0" y="0" viewBox="31.427001953125 40.13800048828125 37.144996643066406 19.7239990234375" enable-background="new 0 0 100 100" xml:space="preserve" height="59.59046879191548" width="112.22307203545414" class="icon-icon-0" data-fill-palette-color="accent" id="icon-0"><path d="M41.29 40.138l-9.863 9.861 9.863 9.862 2.557-2.557-7.305-7.306 7.305-7.303L41.29 40.138zM58.709 40.138l-2.557 2.558 7.305 7.303-7.305 7.306 2.557 2.557 9.863-9.862L58.709 40.138z" fill="#ff4136" data-fill-palette-color="accent"></path></svg></g></svg></g></svg></g><defs></defs></svg><rect width="395.52" height="44.30385587316159" fill="none" stroke="none" visibility="hidden"></rect></g></svg></g></svg>